<svg width="18" height="20" viewBox="0 0 18 20" fill="none" xmlns="http://www.w3.org/2000/svg">
<path d="M8.68799 4.38461C9.62402 4.38461 10.7974 3.80483 11.4961 3.03179C12.1289 2.33121 12.5903 1.35283 12.5903 0.374443C12.5903 0.241576 12.5771 0.108709 12.5508 0C11.5093 0.0362365 10.2568 0.640177 9.50537 1.44946C8.91211 2.06548 8.37158 3.03179 8.37158 4.02225C8.37158 4.1672 8.39795 4.31214 8.41113 4.36046C8.47705 4.37254 8.58252 4.38461 8.68799 4.38461ZM5.39209 19C6.6709 19 7.23779 18.2149 8.83301 18.2149C10.4546 18.2149 10.8105 18.9758 12.2344 18.9758C13.6318 18.9758 14.5679 17.7921 15.4512 16.6325C16.4399 15.3039 16.8486 13.9994 16.875 13.939C16.7827 13.9148 14.1064 12.9123 14.1064 10.0979C14.1064 7.65798 16.2158 6.5588 16.3345 6.47425C14.937 4.63827 12.8145 4.58996 12.2344 4.58996C10.6655 4.58996 9.38672 5.45963 8.58252 5.45963C7.7124 5.45963 6.56543 4.63827 5.20752 4.63827C2.62354 4.63827 0 6.59504 0 10.2912C0 12.5861 0.975586 15.014 2.17529 16.5842C3.20361 17.9129 4.1001 19 5.39209 19Z" fill="white"/>
</svg>
